<?xml version="1.0" encoding="utf-8"?>
<!-- Generator: Adobe Illustrator 19.1.0, SVG Export Plug-In . SVG Version: 6.00 Build 0)  -->
<svg version="1.1" id="Layer_1" xmlns="http://www.w3.org/2000/svg" xmlns:xlink="http://www.w3.org/1999/xlink" x="0px" y="0px"
	 viewBox="-191 -8 576 576" style="enable-background:new -191 -8 576 576;" xml:space="preserve">
<style type="text/css">
	.st0{fill:#1E90FF;}
</style>
<g id="icomoon-ignore">
</g>
<path class="st0" d="M33.4,88c70.2,0,127.3,57.4,127.3,128c0,26.6-8.2,52.2-23.6,74l-12.5,17.7l-17.6,12.6
	C85.2,335.8,59.8,344,33.4,344c-70.2,0-127.3-57.4-127.3-128S-36.8,88,33.4,88L33.4,88z M33.4,24c-105.4,0-190.9,86-190.9,192
	s85.5,192,190.9,192c41.2,0,79.3-13.3,110.4-35.6l153.3,154.2c6.2,6.3,14.4,9.4,22.5,9.4s16.3-3.1,22.5-9.4
	c12.5-12.5,12.5-32.8,0-45.3L188.9,327.1c22.2-31.4,35.4-69.6,35.4-111.1C224.3,110,138.8,24,33.4,24L33.4,24z"/>
</svg>
