<?xml version="1.0" encoding="utf-8"?>
<!-- Generator: Adobe Illustrator 19.1.0, SVG Export Plug-In . SVG Version: 6.00 Build 0)  -->
<svg version="1.1" id="Layer_1" xmlns="http://www.w3.org/2000/svg" xmlns:xlink="http://www.w3.org/1999/xlink" x="0px" y="0px"
	 viewBox="-191 -8 576 576" style="enable-background:new -191 -8 576 576;" xml:space="preserve">
<style type="text/css">
	.st0{fill:#FFFFFF;}
</style>
<g id="icomoon-ignore">
</g>
<path class="st0" d="M247.9,236.9L247.9,236.9c5.8-16.6,9.1-34.3,9.1-52.9c0-88.4-71.6-160-160-160S-63,95.6-63,184
	c0,18.6,3.3,36.3,9.2,52.9v0C-116.2,268.6-159,333.2-159,408v96c0,17.7,14.3,32,32,32H321c17.7,0,32-14.3,32-32v-96
	C353,333.2,310.2,268.6,247.9,236.9z M97,88c52.9,0,96,43.1,96,96s-43.1,96-96,96S1,236.9,1,184S44.1,88,97,88z M289,472H-95v-64
	c0-51.3,30.5-95.6,74.2-116C8.4,323.9,50.3,344,97,344s88.6-20.1,117.8-52c43.7,20.4,74.2,64.6,74.2,116V472z"/>
</svg>
