<?xml version="1.0" encoding="utf-8"?>
<!-- Generator: Adobe Illustrator 19.1.0, SVG Export Plug-In . SVG Version: 6.00 Build 0)  -->
<svg version="1.1" id="Layer_1" xmlns="http://www.w3.org/2000/svg" xmlns:xlink="http://www.w3.org/1999/xlink" x="0px" y="0px"
	 viewBox="-191 -8 576 576" style="enable-background:new -191 -8 576 576;" xml:space="preserve">
<style type="text/css">
	.st0{fill:#FFFFFF;}
</style>
<g id="icomoon-ignore">
</g>
<path class="st0" d="M97,24c-141.4,0-256,114.6-256,256S-44.4,536,97,536s256-114.6,256-256S238.4,24,97,24z M97,472
	C-8.9,472-95,385.9-95,280S-8.9,88,97,88s192,86.1,192,192S202.9,472,97,472z"/>
<path class="st0" d="M161.3,280H113c-8.8,0-16-7.2-16-16v-48.3c0-17.5-14.2-31.7-31.7-31.7h-0.6C47.2,184,33,198.2,33,215.7v96.6
	c0,17.5,14.2,31.7,31.7,31.7h96.6c17.5,0,31.7-14.2,31.7-31.7v-0.6C193,294.2,178.8,280,161.3,280z"/>
</svg>
