<?xml version="1.0" encoding="utf-8"?>
<!-- Generator: Adobe Illustrator 19.1.0, SVG Export Plug-In . SVG Version: 6.00 Build 0)  -->
<svg version="1.1" id="Layer_1" xmlns="http://www.w3.org/2000/svg" xmlns:xlink="http://www.w3.org/1999/xlink" x="0px" y="0px"
	 viewBox="-191 -8 576 576" style="enable-background:new -191 -8 576 576;" xml:space="preserve">
<style type="text/css">
	.st0{fill:#BDC3C7;}
</style>
<g id="icomoon-ignore">
</g>
<path class="st0" d="M276.2,216h-4.5c10.9-18.8,17.3-40.7,17.3-64c0-70.7-57.3-128-128-128S33,81.3,33,152c-70.7,0-128,57.3-128,128
	c0,23.3,6.3,45.2,17.3,64h-4.5c-45.6,20.4-76.8,64.2-76.8,110.8V504c0,11.2,17.7,32,31,32h325c13.3,0,28-20.8,28-32v-49.2
	c0-16.3-4-32.1-10.9-46.8H325c13.3,0,28-20.8,28-32v-49.2C353,280.2,321.8,236.4,276.2,216z M161,88c35.3,0,64,28.7,64,64
	s-28.7,64-64,64c-6.8,0-13.1-1.3-19.2-3.3c-10.4-16.8-24.6-31-41.5-41.5c-1.9-6.1-3.3-12.5-3.3-19.3C97,116.7,125.7,88,161,88
	L161,88z M33,216c35.3,0,64,28.7,64,64s-28.7,64-64,64c-31.6,0-57.8-23-62.9-53.2c-0.7-3.5-1.1-7.1-1.1-10.8
	C-31,244.7-2.3,216,33,216z M161,472H-95v-17.2c0-17.4,11.4-35.4,28.8-46.8h198.5c17.3,11.4,28.8,29.5,28.8,46.8V472z M289,344
	H143.7c10.9-18.8,17.3-40.7,17.3-64h99.2c17.3,11.4,28.8,29.5,28.8,46.8V344z"/>
</svg>
