<?xml version="1.0" encoding="utf-8"?>
<!-- Generator: Adobe Illustrator 19.1.0, SVG Export Plug-In . SVG Version: 6.00 Build 0)  -->
<svg version="1.1" id="Layer_1" xmlns="http://www.w3.org/2000/svg" xmlns:xlink="http://www.w3.org/1999/xlink" x="0px" y="0px"
	 viewBox="-145 225 668 112" style="enable-background:new -145 225 668 112;" xml:space="preserve">
<style type="text/css">
	.st0{enable-background:new    ;}
	.st1{fill:#FFFFFF;}
</style>
<g class="st0">
	<path class="st1" d="M-73.8,238.5v58.9H-74v0.1c0,15.9-12.9,28.8-28.7,28.8c-15.9,0-28.8-12.9-28.8-28.8v-0.1h17.5v0.1
		c0,3,1.1,5.8,3.3,7.9c2.1,2.1,5,3.4,8,3.4s5.8-1.3,7.9-3.4c2.1-2.1,3.3-4.9,3.3-7.9v-0.1h0.4v-43h-18.5l0.4-15.9H-73.8z"/>
	<path class="st1" d="M30.3,282.4c0,25.1-20.4,45.5-45.5,45.5s-45.5-20.4-45.5-45.5c0-25.1,20.4-45.5,45.5-45.5
		S30.3,257.3,30.3,282.4z M-42.6,282.4c0,15.2,12.3,27.4,27.4,27.4c15.2,0,27.4-12.3,27.4-27.4S0,254.9-15.2,254.9
		C-30.4,254.9-42.6,267.2-42.6,282.4z"/>
	<path class="st1" d="M72.8,311.3c5.9,0,10.8-4.6,10.8-10.5c0-5.9-4.9-10.7-10.8-10.7H44.1v-51.6H68c14.2,0,25.7,11.5,25.7,25.7
		c0,5.4-1.6,10.3-4.5,14.4c6.4,4.9,10.4,12.5,10.4,21.1c0,14.8-11.9,26.6-26.6,26.6h-6.3v-14.9H72.8z M67.3,273.2
		c4.9,0,10.1-4,10.1-10.2c0-6.1-5.3-9.9-10.1-9.9h-7.6v20H67.3z"/>
	<path class="st1" d="M142.1,311.3c5.9,0,10.8-4.6,10.8-10.5c0-5.9-4.9-10.7-10.8-10.7h-28.7v-51.6h23.9c14.2,0,25.7,11.5,25.7,25.7
		c0,5.4-1.6,10.3-4.5,14.4c6.4,4.9,10.4,12.5,10.4,21.1c0,14.8-11.9,26.6-26.6,26.6h-6.3v-14.9H142.1z M136.6,273.2
		c4.9,0,10.1-4,10.1-10.2c0-6.1-5.3-9.9-10.1-9.9h-7.6v20H136.6z"/>
	<path class="st1" d="M273.6,282.4c0,25.1-20.4,45.5-45.5,45.5c-25.1,0-45.5-20.4-45.5-45.5c0-25.1,20.4-45.5,45.5-45.5
		C253.2,236.9,273.6,257.3,273.6,282.4z M200.7,282.4c0,15.2,12.3,27.4,27.4,27.4c15.2,0,27.4-12.3,27.4-27.4s-12.3-27.4-27.4-27.4
		C213,254.9,200.7,267.2,200.7,282.4z"/>
	<path class="st1" d="M378.4,282.4c0,25.1-20.4,45.5-45.5,45.5c-25.1,0-45.5-20.4-45.5-45.5c0-25.1,20.4-45.5,45.5-45.5
		C358,236.9,378.4,257.3,378.4,282.4z M305.5,282.4c0,15.2,12.3,27.4,27.4,27.4c15.2,0,27.4-12.3,27.4-27.4s-12.3-27.4-27.4-27.4
		C317.7,254.9,305.5,267.2,305.5,282.4z"/>
	<path class="st1" d="M417.7,286.1L411,293v33.2h-17.5v-87.7H411v28.3l25.7-28.3h23.7l-30.7,34.3l31.5,53.4h-20.9L417.7,286.1z"/>
</g>
</svg>
