<?xml version="1.0" encoding="utf-8"?>
<!-- Generator: Adobe Illustrator 19.1.0, SVG Export Plug-In . SVG Version: 6.00 Build 0)  -->
<svg version="1.1" id="Layer_1" xmlns="http://www.w3.org/2000/svg" xmlns:xlink="http://www.w3.org/1999/xlink" x="0px" y="0px"
	 viewBox="-191 -8 1481 576" style="enable-background:new -191 -8 1481 576;" xml:space="preserve">
<style type="text/css">
	.st0{fill:#BDC3C7;}
	.st1{fill:#FFFFFF;}
</style>
<g id="icomoon-ignore">
</g>
<g>
	<path class="st0" d="M289,24H-63c-35.3,0-64,28.7-64,64v384c0,35.3,28.7,64,64,64h352c17.7,0,32-14.3,32-32V56
		C321,38.3,306.7,24,289,24z M257,456c0,8.8-7.2,16-16,16H-31.3c-17.5,0-31.7-14.2-31.7-31.7v-0.6c0-17.5,14.2-31.7,31.7-31.7H241
		c8.8,0,16,7.2,16,16V456L257,456z M257,329c0,8.8-7.2,16-16,16H17c-8.8,0-16-7.2-16-16V104c0-8.8,7.2-16,16-16h224
		c8.8,0,16,7.2,16,16V329z"/>
	<path class="st0" d="M177,152H81c-8.8,0-16,7.2-16,16v32c0,8.8,7.2,16,16,16h96c8.8,0,16-7.2,16-16v-32
		C193,159.2,185.8,152,177,152z"/>
</g>
<g>
	<path class="st1" d="M1101,24H749c-35.3,0-64,28.7-64,64v384c0,35.3,28.7,64,64,64h352c17.7,0,32-14.3,32-32V56
		C1133,38.3,1118.7,24,1101,24z M1069,456c0,8.8-7.2,16-16,16H780.7c-17.5,0-31.7-14.2-31.7-31.7v-0.6c0-17.5,14.2-31.7,31.7-31.7
		H1053c8.8,0,16,7.2,16,16V456L1069,456z M1069,329c0,8.8-7.2,16-16,16H829c-8.8,0-16-7.2-16-16V104c0-8.8,7.2-16,16-16h224
		c8.8,0,16,7.2,16,16V329z"/>
	<path class="st1" d="M989,152h-96c-8.8,0-16,7.2-16,16v32c0,8.8,7.2,16,16,16h96c8.8,0,16-7.2,16-16v-32
		C1005,159.2,997.8,152,989,152z"/>
</g>
</svg>
