<?xml version="1.0" encoding="utf-8"?>
<!-- Generator: Adobe Illustrator 19.1.0, SVG Export Plug-In . SVG Version: 6.00 Build 0)  -->
<svg version="1.1" id="Layer_1" xmlns="http://www.w3.org/2000/svg" xmlns:xlink="http://www.w3.org/1999/xlink" x="0px" y="0px"
	 viewBox="-191 -8 576 576" style="enable-background:new -191 -8 576 576;" xml:space="preserve">
<style type="text/css">
	.st0{fill:#BDC3C7;}
</style>
<g id="icomoon-ignore">
</g>
<path class="st0" d="M326.3,243.5l-42.4-7.1c-4.9-21-13.2-40.7-24.4-58.4l23.6-33.1c9-12.6,7.6-29.9-3.4-40.8l-6.9-6.9
	c-11-11-28.2-12.4-40.8-3.4L199,117.5c-17.8-11.2-37.4-19.5-58.4-24.4l-7.1-42.4C130.9,35.3,117.5,24,101.9,24h-9.8
	c-15.6,0-29,11.3-31.6,26.7l-7.1,42.4C32.4,98,12.8,106.4-5,117.5L-38,93.9c-12.6-9-29.9-7.6-40.8,3.4l-6.9,6.9
	c-11,11-12.4,28.2-3.4,40.8l23.6,33.1c-11.2,17.8-19.5,37.4-24.4,58.4l-42.4,7.1c-15.4,2.6-26.7,15.9-26.7,31.6v9.8
	c0,15.6,11.3,29,26.7,31.6l42.4,7.1c4.9,21,13.2,40.7,24.4,58.4L-89.1,415c-9,12.6-7.6,29.9,3.4,40.8l6.9,6.9
	c11,11,28.2,12.4,40.8,3.4L-5,442.5c17.8,11.2,37.4,19.5,58.4,24.4l7.1,42.4c2.6,15.4,15.9,26.7,31.6,26.7h9.8
	c15.6,0,29-11.3,31.6-26.7l7.1-42.4c21-4.9,40.7-13.2,58.4-24.4l33.1,23.6c12.6,9,29.9,7.6,40.8-3.4l6.9-6.9
	c11-11,12.4-28.2,3.4-40.8L259.5,382c11.2-17.8,19.5-37.4,24.4-58.4l42.4-7.1c15.4-2.6,26.7-15.9,26.7-31.6v-9.8
	C353,259.5,341.7,246.1,326.3,243.5z M97,376c-53,0-96-43-96-96s43-96,96-96s96,43,96,96S150,376,97,376z"/>
</svg>
