<?xml version="1.0" encoding="utf-8"?>
<!-- Generator: Adobe Illustrator 19.1.0, SVG Export Plug-In . SVG Version: 6.00 Build 0)  -->
<svg version="1.1" id="Layer_1" xmlns="http://www.w3.org/2000/svg" xmlns:xlink="http://www.w3.org/1999/xlink" x="0px" y="0px"
	 viewBox="0 0 44.8 58.1" style="enable-background:new 0 0 44.8 58.1;" xml:space="preserve">
<style type="text/css">
	.st0{fill:#FEFEFC;}
	.st1{fill:none;stroke:#031E2F;stroke-width:2;stroke-linecap:round;stroke-miterlimit:10;}
	.st2{fill:#1E90FF;}
</style>
<g>
	<polygon class="st0" points="44.2,26.1 0,36.8 0,7.3 44.7,7.3 	"/>
	<g>
		<line class="st1" x1="7.2" y1="16.9" x2="35.2" y2="16.9"/>
		<line class="st1" x1="7.2" y1="22.6" x2="35.2" y2="22.6"/>
		<line class="st1" x1="7.2" y1="28.3" x2="35.2" y2="28.3"/>
	</g>
	<path class="st2" d="M44.8,7.3H0h0v4.9c0,0,0,26.5,0,26.7C0.6,49.4,9.5,57.2,20.5,58c11.8,0.8,24.3-5.4,24.3-15.9
		C44.7,31.1,44.8,7.3,44.8,7.3z M4.4,33.9V12.2h32.9L4.4,33.9z"/>
	<g>
		<g>
			<rect x="28.1" y="9.9" class="st0" width="4.9" height="4.7"/>
			<rect x="20.9" y="9.9" class="st0" width="5.6" height="5.5"/>
			<rect x="12.7" y="9.3" class="st0" width="5" height="4.6"/>
			<rect x="4.4" y="1" class="st0" width="4.1" height="4"/>
			<rect x="17.7" y="5.3" class="st0" width="4.1" height="4"/>
			<rect x="12.7" y="1" class="st0" width="4.1" height="4"/>
			<rect x="4.4" y="9.3" class="st0" width="4.1" height="5.5"/>
			<rect x="8.5" y="5" class="st0" width="4.1" height="4.3"/>
		</g>
	</g>
</g>
</svg>
