<?xml version="1.0" encoding="utf-8"?>
<!-- Generator: Adobe Illustrator 19.1.0, SVG Export Plug-In . SVG Version: 6.00 Build 0)  -->
<svg version="1.1" id="Layer_1" xmlns="http://www.w3.org/2000/svg" xmlns:xlink="http://www.w3.org/1999/xlink" x="0px" y="0px"
	 viewBox="-1033.4 221.8 4601.1 1860.2" style="enable-background:new -1033.4 221.8 4601.1 1860.2;" xml:space="preserve">
<style type="text/css">
	.st0{fill:#BDC3C7;}
	.st1{fill:#FFFFFF;}
	.st2{fill:#1E90FF;}
</style>
<g id="icomoon-ignore">
</g>
<g id="icomoon-ignore_1_">
</g>
<g id="icomoon-ignore_2_">
</g>
<g id="icomoon-ignore_3_">
</g>
<g>
	<path class="st0" d="M-510.3,237.7h-352c-35.3,0-64,28.7-64,64v384c0,35.3,28.7,64,64,64h352c17.7,0,32-14.3,32-32v-448
		C-478.3,252-492.6,237.7-510.3,237.7z M-542.3,669.7c0,8.8-7.2,16-16,16h-272.3c-17.5,0-31.7-14.2-31.7-31.7v-0.6
		c0-17.5,14.2-31.7,31.7-31.7h272.3c8.8,0,16,7.2,16,16V669.7L-542.3,669.7z M-542.3,542.7c0,8.8-7.2,16-16,16h-224
		c-8.8,0-16-7.2-16-16v-225c0-8.8,7.2-16,16-16h224c8.8,0,16,7.2,16,16V542.7z"/>
	<path class="st0" d="M-622.3,365.7h-96c-8.8,0-16,7.2-16,16v32c0,8.8,7.2,16,16,16h96c8.8,0,16-7.2,16-16v-32
		C-606.3,372.9-613.5,365.7-622.3,365.7z"/>
</g>
<path class="st0" d="M459.2,301.7v-32h-384v32c0,17.7,14.3,32,32,32v256c-17.7,0-32,14.3-32,32v32h160v96c0,17.7,14.3,32,32,32
	c17.7,0,32-14.3,32-32v-96h160v-32c0-17.7-14.3-32-32-32v-256C444.9,333.7,459.2,319.4,459.2,301.7z M363.2,589.7h-192v-256h192
	V589.7z"/>
<path class="st0" d="M1415.9,429.7h-4.5c10.9-18.8,17.3-40.7,17.3-64c0-70.7-57.3-128-128-128c-70.7,0-128,57.3-128,128
	c-70.7,0-128,57.3-128,128c0,23.3,6.3,45.2,17.3,64h-4.5c-45.6,20.4-76.8,64.2-76.8,110.8v49.2c0,11.2,17.7,32,31,32h325
	c13.3,0,28-20.8,28-32v-49.2c0-16.3-4-32.1-10.9-46.8h110.9c13.3,0,28-20.8,28-32v-49.2C1492.7,493.9,1461.5,450.1,1415.9,429.7z
	 M1300.7,301.7c35.3,0,64,28.7,64,64s-28.7,64-64,64c-6.8,0-13.1-1.3-19.2-3.3c-10.4-16.8-24.6-31-41.5-41.5
	c-1.9-6.1-3.3-12.5-3.3-19.3C1236.7,330.4,1265.4,301.7,1300.7,301.7L1300.7,301.7z M1172.7,429.7c35.3,0,64,28.7,64,64
	s-28.7,64-64,64c-31.6,0-57.8-23-62.9-53.2c-0.7-3.5-1.1-7.1-1.1-10.8C1108.7,458.4,1137.4,429.7,1172.7,429.7z M1300.7,685.7h-256
	v-17.2c0-17.4,11.4-35.4,28.8-46.8H1272c17.3,11.4,28.8,29.5,28.8,46.8L1300.7,685.7L1300.7,685.7z M1428.7,557.7h-145.3
	c10.9-18.8,17.3-40.7,17.3-64h99.2c17.3,11.4,28.8,29.5,28.8,46.8V557.7z"/>
<g>
	<path class="st0" d="M2430.2,572.7c-17.7,0-32,14.3-32,32v80c0,8.8-7.2,16-16,16h-352c-8.8,0-16-7.2-16-16v-352c0-8.8,7.2-16,16-16
		h80c17.7,0,32-14.3,32-32c0-17.7-14.3-32-32-32h-128c-17.7,0-32,14.3-32,32v448c0,17.7,14.3,32,32,32h448c17.7,0,32-14.3,32-32
		v-128C2462.2,587,2447.9,572.7,2430.2,572.7z"/>
	<path class="st0" d="M2078.2,636.7h144l230.7-239.2c12.5-12.5,12.5-32.7,0-45.1l-90.3-90.3c-6.2-6.3-14.4-9.4-22.6-9.4
		s-16.3,3.1-22.6,9.4l-239.2,230.6V636.7z M2142.2,519.9l197.4-190.3l45.7,45.7L2195,572.7h-52.8V519.9z"/>
</g>
<path class="st0" d="M3112.2,333.7c70.2,0,127.3,57.4,127.3,128c0,26.6-8.2,52.2-23.6,74l-12.5,17.7l-17.6,12.6
	c-21.8,15.5-47.2,23.7-73.6,23.7c-70.2,0-127.3-57.4-127.3-128S3042,333.7,3112.2,333.7L3112.2,333.7z M3112.2,269.7
	c-105.4,0-190.9,86-190.9,192s85.5,192,190.9,192c41.2,0,79.3-13.3,110.4-35.6l153.3,154.2c6.2,6.3,14.4,9.4,22.5,9.4
	c8.1,0,16.3-3.1,22.5-9.4c12.5-12.5,12.5-32.8,0-45.3l-153.2-154.2c22.2-31.4,35.4-69.6,35.4-111.1
	C3303.1,355.7,3217.6,269.7,3112.2,269.7L3112.2,269.7z"/>
<g id="icomoon-ignore_4_">
</g>
<g>
	<g>
		<path class="st1" d="M-510.3,1450h-352c-35.3,0-64,28.7-64,64v384c0,35.3,28.7,64,64,64h352c17.7,0,32-14.3,32-32v-448
			C-478.3,1464.3-492.6,1450-510.3,1450z M-542.3,1882c0,8.8-7.2,16-16,16h-272.3c-17.5,0-31.7-14.2-31.7-31.7v-0.6
			c0-17.5,14.2-31.7,31.7-31.7h272.3c8.8,0,16,7.2,16,16V1882L-542.3,1882z M-542.3,1755c0,8.8-7.2,16-16,16h-224
			c-8.8,0-16-7.2-16-16v-225c0-8.8,7.2-16,16-16h224c8.8,0,16,7.2,16,16V1755z"/>
		<path class="st1" d="M-622.3,1578h-96c-8.8,0-16,7.2-16,16v32c0,8.8,7.2,16,16,16h96c8.8,0,16-7.2,16-16v-32
			C-606.3,1585.2-613.5,1578-622.3,1578z"/>
	</g>
	<path class="st1" d="M459.2,1418.5v-32h-384v32c0,17.7,14.3,32,32,32v256c-17.7,0-32,14.3-32,32v32h160v96c0,17.7,14.3,32,32,32
		c17.7,0,32-14.3,32-32v-96h160v-32c0-17.7-14.3-32-32-32v-256C444.9,1450.5,459.2,1436.2,459.2,1418.5z M363.2,1706.5h-192v-256
		h192V1706.5z"/>
	<path class="st1" d="M1415.9,1597.1h-4.5c10.9-18.8,17.3-40.7,17.3-64c0-70.7-57.3-128-128-128c-70.7,0-128,57.3-128,128
		c-70.7,0-128,57.3-128,128c0,23.3,6.3,45.2,17.3,64h-4.5c-45.6,20.4-76.8,64.2-76.8,110.8v49.2c0,11.2,17.7,32,31,32h325
		c13.3,0,28-20.8,28-32v-49.2c0-16.3-4-32.1-10.9-46.8h110.9c13.3,0,28-20.8,28-32v-49.2C1492.7,1661.3,1461.5,1617.5,1415.9,1597.1
		z M1300.7,1469.1c35.3,0,64,28.7,64,64c0,35.3-28.7,64-64,64c-6.8,0-13.1-1.3-19.2-3.3c-10.4-16.8-24.6-31-41.5-41.5
		c-1.9-6.1-3.3-12.5-3.3-19.3C1236.7,1497.8,1265.4,1469.1,1300.7,1469.1L1300.7,1469.1z M1172.7,1597.1c35.3,0,64,28.7,64,64
		c0,35.3-28.7,64-64,64c-31.6,0-57.8-23-62.9-53.2c-0.7-3.5-1.1-7.1-1.1-10.8C1108.7,1625.8,1137.4,1597.1,1172.7,1597.1z
		 M1300.7,1853.1h-256v-17.2c0-17.4,11.4-35.4,28.8-46.8H1272c17.3,11.4,28.8,29.5,28.8,46.8L1300.7,1853.1L1300.7,1853.1z
		 M1428.7,1725.1h-145.3c10.9-18.8,17.3-40.7,17.3-64h99.2c17.3,11.4,28.8,29.5,28.8,46.8V1725.1z"/>
	<g>
		<path class="st1" d="M2430.2,1693.1c-17.7,0-32,14.3-32,32v80c0,8.8-7.2,16-16,16h-352c-8.8,0-16-7.2-16-16v-352
			c0-8.8,7.2-16,16-16h80c17.7,0,32-14.3,32-32c0-17.7-14.3-32-32-32h-128c-17.7,0-32,14.3-32,32v448c0,17.7,14.3,32,32,32h448
			c17.7,0,32-14.3,32-32v-128C2462.2,1707.4,2447.9,1693.1,2430.2,1693.1z"/>
		<path class="st1" d="M2078.2,1757.1h144l230.7-239.2c12.5-12.5,12.5-32.7,0-45.1l-90.3-90.3c-6.2-6.3-14.4-9.4-22.6-9.4
			c-8.2,0-16.3,3.1-22.6,9.4l-239.2,230.6V1757.1z M2142.2,1640.3l197.4-190.3l45.7,45.7L2195,1693.1h-52.8V1640.3z"/>
	</g>
	<path class="st2" d="M3112.2,1450c70.2,0,127.3,57.4,127.3,128c0,26.6-8.2,52.2-23.6,74l-12.5,17.7l-17.6,12.6
		c-21.8,15.5-47.2,23.7-73.6,23.7c-70.2,0-127.3-57.4-127.3-128S3042,1450,3112.2,1450L3112.2,1450z M3112.2,1386
		c-105.4,0-190.9,86-190.9,192s85.5,192,190.9,192c41.2,0,79.3-13.3,110.4-35.6l153.3,154.2c6.2,6.3,14.4,9.4,22.5,9.4
		c8.1,0,16.3-3.1,22.5-9.4c12.5-12.5,12.5-32.8,0-45.3l-153.2-154.2c22.2-31.4,35.4-69.6,35.4-111.1
		C3303.1,1472,3217.6,1386,3112.2,1386L3112.2,1386z"/>
</g>
</svg>
